<svg xmlns="http://www.w3.org/2000/svg" viewBox="0 0 600 800" fill="none" preserveAspectRatio="xMidYMid meet">
  <defs>
    <radialGradient id="larBg" cx="50%" cy="42%" r="62%">
      <stop offset="0%" stop-color="#1A0E0A" stop-opacity="0.7"></stop>
      <stop offset="100%" stop-color="#000000" stop-opacity="0"></stop>
    </radialGradient>
    <radialGradient id="larHalo" cx="50%" cy="38%" r="42%">
      <stop offset="0%" stop-color="#FFE9A8" stop-opacity="0.16"></stop>
      <stop offset="55%" stop-color="#C9A227" stop-opacity="0.06"></stop>
      <stop offset="100%" stop-color="#C8102E" stop-opacity="0"></stop>
    </radialGradient>
    <radialGradient id="larVig" cx="50%" cy="50%" r="68%">
      <stop offset="55%" stop-color="#000000" stop-opacity="0"></stop>
      <stop offset="100%" stop-color="#000000" stop-opacity="0.6"></stop>
    </radialGradient>
  </defs>

  <rect width="600" height="800" fill="url(#larBg)"></rect>
  <circle cx="300" cy="300" r="220" fill="url(#larHalo)"></circle>

  <g stroke="#FFE9A8" fill="none" stroke-linecap="round" stroke-linejoin="round">

    
    <g stroke-opacity="0.88" stroke-width="1.3">
      <path d="M 220 122 Q 246 114 276 116 L 324 116 Q 354 114 380 122"></path>
      <path d="M 250 134 L 254 148 Q 262 156 278 156 L 322 156 Q 338 156 346 148 L 350 134"></path>
      <path d="M 380 122 Q 392 130 396 144"></path>
      <path d="M 220 122 Q 208 130 204 144"></path>
      <path d="M 258 114 Q 260 106 264 106"></path>
      <path d="M 342 114 Q 340 106 336 106"></path>
    </g>

    
    <g stroke-opacity="0.32" stroke-width="0.5">
      <path d="M 264 158 L 262 184"></path>
      <path d="M 300 158 L 300 186"></path>
      <path d="M 336 158 L 338 184"></path>
      <path d="M 246 156 L 242 180"></path>
      <path d="M 354 156 L 358 180"></path>
    </g>

    
    <g stroke-opacity="0.92" stroke-width="1.3">
      
      <path d="M 362 198 L 368 178 L 372 152"></path>
      <path d="M 238 198 L 232 178 L 228 152"></path>
      
      <path d="M 372 198 L 366 202 L 322 200 L 306 192 L 302 198 L 298 198 L 294 192 L 278 200 L 234 202 L 228 198"></path>
      
      <path d="M 366 202 Q 374 240 376 292"></path>
      <path d="M 234 202 Q 226 240 224 292"></path>
      
      <path d="M 224 292 Q 250 306 300 306 Q 350 306 376 292"></path>
      
      <path d="M 240 298 L 238 322"></path>
      <path d="M 360 298 L 362 322"></path>
    </g>

    
    <path d="M 300 198 L 300 290" stroke-opacity="0.5" stroke-width="0.8"></path>
    
    <path d="M 322 222 Q 340 250 356 284" stroke-opacity="0.32" stroke-width="0.5"></path>
    <path d="M 278 222 Q 260 250 244 284" stroke-opacity="0.32" stroke-width="0.5"></path>

    
    <g stroke-opacity="0.28" stroke-width="0.5">
      <path d="M 268 308 Q 300 314 332 308"></path>
      <path d="M 274 316 Q 300 320 326 316"></path>
    </g>

    
    <g stroke-opacity="0.9" stroke-width="1.2">
      <path d="M 244 328 Q 300 322 356 328 Q 360 350 354 362 Q 300 368 246 362 Q 240 350 244 328 Z"></path>
    </g>
    <path d="M 254 344 Q 300 350 346 344" stroke-opacity="0.32" stroke-width="0.5"></path>

    
    <g stroke-opacity="0.85" stroke-width="1.1">
      <path d="M 248 380 Q 300 374 352 380 Q 352 398 348 406 Q 300 412 252 406 Q 248 398 248 380 Z"></path>
      <path d="M 250 418 Q 300 412 350 418 Q 350 434 346 442 Q 300 448 254 442 Q 250 434 250 418 Z"></path>
      <path d="M 252 454 Q 300 448 348 454 Q 348 470 344 478 Q 300 484 256 478 Q 252 470 252 454 Z"></path>
      <path d="M 254 490 Q 300 484 346 490 Q 346 506 342 514 Q 300 520 258 514 Q 254 506 254 490 Z"></path>
      <path d="M 256 526 Q 300 520 344 526 Q 344 542 340 550 Q 300 556 260 550 Q 256 542 256 526 Z"></path>
      <path d="M 258 562 Q 300 556 342 562 Q 342 578 338 586 Q 300 592 262 586 Q 258 578 258 562 Z"></path>
      <path d="M 260 598 Q 300 592 340 598 Q 340 614 336 622 Q 300 628 264 622 Q 260 614 260 598 Z"></path>
      <path d="M 262 634 Q 300 628 338 634 Q 338 650 334 658 Q 300 664 266 658 Q 262 650 262 634 Z"></path>
      <path d="M 264 670 Q 300 664 336 670 Q 336 686 332 694 Q 300 700 268 694 Q 264 686 264 670 Z" stroke-opacity="0.7"></path>
      <path d="M 266 706 Q 300 700 334 706 Q 334 722 330 730" stroke-opacity="0.5"></path>
    </g>
  </g>

  
  <circle cx="300" cy="252" r="3.2" fill="#C9A227" opacity="0.9"></circle>
  <circle cx="300" cy="252" r="1.4" fill="#C8102E"></circle>

  <rect width="600" height="800" fill="url(#larVig)" pointer-events="none"></rect>
</svg>