<svg xmlns="http://www.w3.org/2000/svg" viewBox="0 0 200 200" fill="none">
  
  <defs>
    <radialGradient id="sunHaloMono" cx="50%" cy="50%" r="55%">
      <stop offset="0%" stop-color="#C8102E" stop-opacity="0.28"></stop>
      <stop offset="65%" stop-color="#C8102E" stop-opacity="0.04"></stop>
      <stop offset="100%" stop-color="#C8102E" stop-opacity="0"></stop>
    </radialGradient>
  </defs>
  
  <circle cx="100" cy="100" r="98" fill="url(#sunHaloMono)"></circle>

  
  <g fill="#C8102E">
    
    <g>
      
      <polygon points="100,8 98,60 102,60"></polygon>
      <polygon points="135.5,15.4 116.6,64.7 120.4,66.2" transform="rotate(22.5 100 100)"></polygon>
      <polygon points="100,8 98,60 102,60" transform="rotate(45 100 100)"></polygon>
      <polygon points="100,8 98,60 102,60" transform="rotate(67.5 100 100)"></polygon>
      <polygon points="100,8 98,60 102,60" transform="rotate(90 100 100)"></polygon>
      <polygon points="100,8 98,60 102,60" transform="rotate(112.5 100 100)"></polygon>
      <polygon points="100,8 98,60 102,60" transform="rotate(135 100 100)"></polygon>
      <polygon points="100,8 98,60 102,60" transform="rotate(157.5 100 100)"></polygon>
      <polygon points="100,8 98,60 102,60" transform="rotate(180 100 100)"></polygon>
      <polygon points="100,8 98,60 102,60" transform="rotate(202.5 100 100)"></polygon>
      <polygon points="100,8 98,60 102,60" transform="rotate(225 100 100)"></polygon>
      <polygon points="100,8 98,60 102,60" transform="rotate(247.5 100 100)"></polygon>
      <polygon points="100,8 98,60 102,60" transform="rotate(270 100 100)"></polygon>
      <polygon points="100,8 98,60 102,60" transform="rotate(292.5 100 100)"></polygon>
      <polygon points="100,8 98,60 102,60" transform="rotate(315 100 100)"></polygon>
      <polygon points="100,8 98,60 102,60" transform="rotate(337.5 100 100)"></polygon>
    </g>
    
    <g opacity="0.85">
      <circle cx="100" cy="22" r="1.6" transform="rotate(11.25 100 100)"></circle>
      <circle cx="100" cy="22" r="1.6" transform="rotate(33.75 100 100)"></circle>
      <circle cx="100" cy="22" r="1.6" transform="rotate(56.25 100 100)"></circle>
      <circle cx="100" cy="22" r="1.6" transform="rotate(78.75 100 100)"></circle>
      <circle cx="100" cy="22" r="1.6" transform="rotate(101.25 100 100)"></circle>
      <circle cx="100" cy="22" r="1.6" transform="rotate(123.75 100 100)"></circle>
      <circle cx="100" cy="22" r="1.6" transform="rotate(146.25 100 100)"></circle>
      <circle cx="100" cy="22" r="1.6" transform="rotate(168.75 100 100)"></circle>
      <circle cx="100" cy="22" r="1.6" transform="rotate(191.25 100 100)"></circle>
      <circle cx="100" cy="22" r="1.6" transform="rotate(213.75 100 100)"></circle>
      <circle cx="100" cy="22" r="1.6" transform="rotate(236.25 100 100)"></circle>
      <circle cx="100" cy="22" r="1.6" transform="rotate(258.75 100 100)"></circle>
      <circle cx="100" cy="22" r="1.6" transform="rotate(281.25 100 100)"></circle>
      <circle cx="100" cy="22" r="1.6" transform="rotate(303.75 100 100)"></circle>
      <circle cx="100" cy="22" r="1.6" transform="rotate(326.25 100 100)"></circle>
      <circle cx="100" cy="22" r="1.6" transform="rotate(348.75 100 100)"></circle>
    </g>
  </g>

  
  <circle cx="88" cy="100" r="44" fill="#C8102E"></circle>
  <circle cx="112" cy="100" r="44" fill="#0B0B0D"></circle>
  <circle cx="112" cy="100" r="44" fill="none" stroke="#F5F5F2" stroke-opacity="0.22" stroke-width="0.7"></circle>

  
  <circle cx="100" cy="100" r="56" fill="none" stroke="#C8102E" stroke-opacity="0.4" stroke-width="0.5"></circle>

  
  <line x1="100" y1="0" x2="100" y2="200" stroke="#F5F5F2" stroke-opacity="0.45" stroke-width="0.7"></line>
</svg>