<svg xmlns="http://www.w3.org/2000/svg" viewBox="0 0 600 200" fill="none">
  <defs>
    <radialGradient id="wavCore" cx="50%" cy="50%" r="55%">
      <stop offset="0%" stop-color="#FFE0A6" stop-opacity="0.7"></stop>
      <stop offset="50%" stop-color="#C9A227" stop-opacity="0.32"></stop>
      <stop offset="100%" stop-color="#C8102E" stop-opacity="0"></stop>
    </radialGradient>
    <linearGradient id="wavGrad" x1="0" y1="0" x2="1" y2="0">
      <stop offset="0%" stop-color="#F5F5F2" stop-opacity="0"></stop>
      <stop offset="50%" stop-color="#F5F5F2" stop-opacity="1"></stop>
      <stop offset="100%" stop-color="#F5F5F2" stop-opacity="0"></stop>
    </linearGradient>
    <linearGradient id="wavRed" x1="0" y1="0" x2="1" y2="0">
      <stop offset="0%" stop-color="#C8102E" stop-opacity="0"></stop>
      <stop offset="50%" stop-color="#C8102E" stop-opacity="0.85"></stop>
      <stop offset="100%" stop-color="#C8102E" stop-opacity="0"></stop>
    </linearGradient>
    <filter id="wavBlur" x="-20%" y="-50%" width="140%" height="200%"><feGaussianBlur stdDeviation="2.5"></feGaussianBlur></filter>
  </defs>

  
  <ellipse cx="300" cy="100" rx="220" ry="70" fill="url(#wavCore)" filter="url(#wavBlur)"></ellipse>

  
  <g stroke="#F5F5F2" stroke-opacity="0.04" stroke-width="0.4">
    <line x1="0" y1="100" x2="600" y2="100"></line>
    <line x1="60" y1="50" x2="60" y2="150"></line>
    <line x1="120" y1="50" x2="120" y2="150"></line>
    <line x1="180" y1="50" x2="180" y2="150"></line>
    <line x1="240" y1="50" x2="240" y2="150"></line>
    <line x1="300" y1="40" x2="300" y2="160"></line>
    <line x1="360" y1="50" x2="360" y2="150"></line>
    <line x1="420" y1="50" x2="420" y2="150"></line>
    <line x1="480" y1="50" x2="480" y2="150"></line>
    <line x1="540" y1="50" x2="540" y2="150"></line>
  </g>

  
  <g stroke="url(#wavGrad)" stroke-linecap="round" fill="none">
    <path d="M 0 100&#xA;             L 12 100 L 18 96 L 24 104 L 30 98 L 36 102 L 42 95 L 48 105&#xA;             L 56 84 L 64 116 L 72 78 L 80 122 L 88 72 L 96 128 L 104 70 L 112 130&#xA;             L 120 64 L 128 136 L 136 58 L 144 142 L 152 54 L 160 146 L 168 50 L 176 150&#xA;             L 184 48 L 192 152 L 200 46 L 208 154 L 216 44 L 224 156 L 232 42 L 240 158&#xA;             L 248 40 L 256 160 L 264 38 L 272 162 L 280 36 L 288 164 L 296 34 L 300 166&#xA;             L 304 166 L 312 36 L 320 164 L 328 38 L 336 162 L 344 40 L 352 160 L 360 42&#xA;             L 368 158 L 376 44 L 384 156 L 392 46 L 400 154 L 408 48 L 416 152 L 424 50&#xA;             L 432 146 L 440 54 L 448 142 L 456 58 L 464 136 L 472 64 L 480 130 L 488 70&#xA;             L 496 128 L 504 72 L 512 122 L 520 78 L 528 116 L 536 84&#xA;             L 544 105 L 550 95 L 556 102 L 562 98 L 568 104 L 574 96 L 580 100 L 600 100" stroke-width="1.6"></path>
  </g>

  
  <g stroke="url(#wavRed)" stroke-linecap="round" fill="none">
    <path d="M 0 100&#xA;             L 30 100 L 45 90 L 60 110 L 75 88 L 90 112 L 105 84 L 120 116&#xA;             L 140 76 L 160 124 L 180 70 L 200 130 L 220 68 L 240 132 L 260 66 L 280 134&#xA;             L 300 64 L 320 134 L 340 66 L 360 132 L 380 68 L 400 130 L 420 70&#xA;             L 440 124 L 460 76 L 480 116 L 500 84 L 520 112 L 540 88 L 560 110 L 580 100 L 600 100" stroke-width="0.9" opacity="0.75"></path>
  </g>

  
  <g stroke="#F5F5F2" stroke-opacity="0.18" stroke-width="3.5" fill="none" filter="url(#wavBlur)">
    <path d="M 0 100 L 120 64 L 200 46 L 280 36 L 300 32 L 320 36 L 400 46 L 480 64 L 600 100"></path>
  </g>

  
  <g fill="#C9A227">
    <circle cx="120" cy="64" r="1.4" opacity="0.65"></circle>
    <circle cx="160" cy="124" r="1.2" opacity="0.55"></circle>
    <circle cx="200" cy="46" r="1.6" opacity="0.75"></circle>
    <circle cx="240" cy="158" r="1.4" opacity="0.65"></circle>
    <circle cx="280" cy="36" r="1.8" opacity="0.85"></circle>
    <circle cx="300" cy="166" r="2" opacity="0.95"></circle>
    <circle cx="320" cy="36" r="1.8" opacity="0.85"></circle>
    <circle cx="360" cy="158" r="1.4" opacity="0.65"></circle>
    <circle cx="400" cy="46" r="1.6" opacity="0.75"></circle>
    <circle cx="440" cy="124" r="1.2" opacity="0.55"></circle>
    <circle cx="480" cy="64" r="1.4" opacity="0.65"></circle>
  </g>

  
  <g stroke="#C8102E" stroke-opacity="0.55" stroke-width="0.7">
    <line x1="300" y1="20" x2="300" y2="30"></line>
    <line x1="300" y1="170" x2="300" y2="180"></line>
  </g>

  
  <g fill="#A3683A" opacity="0.5">
    <rect x="2" y="46" width="6" height="0.6"></rect>
    <rect x="2" y="74" width="4" height="0.6"></rect>
    <rect x="2" y="100" width="10" height="0.8"></rect>
    <rect x="2" y="126" width="4" height="0.6"></rect>
    <rect x="2" y="154" width="6" height="0.6"></rect>
  </g>
</svg>