<svg xmlns="http://www.w3.org/2000/svg" viewBox="0 0 400 400" fill="none">
  <defs>
    <radialGradient id="vesAtmos" cx="50%" cy="50%" r="60%">
      <stop offset="0%" stop-color="#C9A227" stop-opacity="0.16"></stop>
      <stop offset="55%" stop-color="#C8102E" stop-opacity="0.1"></stop>
      <stop offset="100%" stop-color="#0B0B0D" stop-opacity="0"></stop>
    </radialGradient>
    <radialGradient id="vesAlmond" cx="50%" cy="50%" r="50%">
      <stop offset="0%" stop-color="#FFF1B8" stop-opacity="0.55"></stop>
      <stop offset="55%" stop-color="#C9A227" stop-opacity="0.18"></stop>
      <stop offset="100%" stop-color="#C8102E" stop-opacity="0"></stop>
    </radialGradient>
    <radialGradient id="vesCore" cx="50%" cy="50%" r="50%">
      <stop offset="0%" stop-color="#FFF1B8"></stop>
      <stop offset="40%" stop-color="#C9A227"></stop>
      <stop offset="100%" stop-color="#C8102E"></stop>
    </radialGradient>
    <filter id="vesBloom" x="-50%" y="-50%" width="200%" height="200%">
      <feGaussianBlur stdDeviation="3"></feGaussianBlur>
    </filter>
    <clipPath id="vesAlmondClip">
      <path d="M 200 80 A 120 120 0 0 1 200 320 A 120 120 0 0 1 200 80 Z"></path>
    </clipPath>
  </defs>

  
  <circle cx="200" cy="200" r="200" fill="url(#vesAtmos)"></circle>

  
  <circle cx="200" cy="200" r="184" fill="none" stroke="#F5F5F2" stroke-opacity="0.08" stroke-width="0.5"></circle>
  <circle cx="200" cy="200" r="176" fill="none" stroke="#F5F5F2" stroke-opacity="0.04" stroke-width="0.4" stroke-dasharray="2 5"></circle>

  
  <g stroke="#F5F5F2" stroke-opacity="0.28" stroke-width="0.5">
    <line x1="200" y1="14" x2="200" y2="24"></line>
    <line x1="200" y1="14" x2="200" y2="24" transform="rotate(30 200 200)"></line>
    <line x1="200" y1="14" x2="200" y2="24" transform="rotate(60 200 200)"></line>
    <line x1="200" y1="14" x2="200" y2="24" transform="rotate(90 200 200)"></line>
    <line x1="200" y1="14" x2="200" y2="24" transform="rotate(120 200 200)"></line>
    <line x1="200" y1="14" x2="200" y2="24" transform="rotate(150 200 200)"></line>
    <line x1="200" y1="14" x2="200" y2="24" transform="rotate(180 200 200)"></line>
    <line x1="200" y1="14" x2="200" y2="24" transform="rotate(210 200 200)"></line>
    <line x1="200" y1="14" x2="200" y2="24" transform="rotate(240 200 200)"></line>
    <line x1="200" y1="14" x2="200" y2="24" transform="rotate(270 200 200)"></line>
    <line x1="200" y1="14" x2="200" y2="24" transform="rotate(300 200 200)"></line>
    <line x1="200" y1="14" x2="200" y2="24" transform="rotate(330 200 200)"></line>
  </g>

  
  <g stroke="#C9A227" stroke-opacity="0.4" stroke-width="0.4">
    <line x1="200" y1="14" x2="200" y2="20" transform="rotate(15 200 200)"></line>
    <line x1="200" y1="14" x2="200" y2="20" transform="rotate(45 200 200)"></line>
    <line x1="200" y1="14" x2="200" y2="20" transform="rotate(75 200 200)"></line>
    <line x1="200" y1="14" x2="200" y2="20" transform="rotate(105 200 200)"></line>
    <line x1="200" y1="14" x2="200" y2="20" transform="rotate(135 200 200)"></line>
    <line x1="200" y1="14" x2="200" y2="20" transform="rotate(165 200 200)"></line>
    <line x1="200" y1="14" x2="200" y2="20" transform="rotate(195 200 200)"></line>
    <line x1="200" y1="14" x2="200" y2="20" transform="rotate(225 200 200)"></line>
    <line x1="200" y1="14" x2="200" y2="20" transform="rotate(255 200 200)"></line>
    <line x1="200" y1="14" x2="200" y2="20" transform="rotate(285 200 200)"></line>
    <line x1="200" y1="14" x2="200" y2="20" transform="rotate(315 200 200)"></line>
    <line x1="200" y1="14" x2="200" y2="20" transform="rotate(345 200 200)"></line>
  </g>

  
  <ellipse cx="200" cy="200" rx="60" ry="120" fill="url(#vesAlmond)" filter="url(#vesBloom)"></ellipse>

  
  <g stroke="#F5F5F2" stroke-opacity="0.32" stroke-width="0.7" fill="none">
    <circle cx="140" cy="200" r="120"></circle>
    <circle cx="260" cy="200" r="120"></circle>
  </g>

  
  <g stroke="#F5F5F2" stroke-opacity="0.1" stroke-width="0.4" fill="none">
    <circle cx="80" cy="200" r="120"></circle>
    <circle cx="320" cy="200" r="120"></circle>
  </g>

  
  <line x1="200" y1="40" x2="200" y2="360" stroke="#C9A227" stroke-opacity="0.45" stroke-width="0.6"></line>

  
  <g clip-path="url(#vesAlmondClip)">
    
    <polygon points="200,90 252,290 148,290" fill="none" stroke="#C9A227" stroke-opacity="0.5" stroke-width="0.5"></polygon>
    
    <polygon points="200,310 148,110 252,110" fill="none" stroke="#C8102E" stroke-opacity="0.55" stroke-width="0.5"></polygon>
    
    <circle cx="200" cy="200" r="46" fill="none" stroke="#C9A227" stroke-opacity="0.45" stroke-width="0.5"></circle>
    
    <line x1="148" y1="200" x2="252" y2="200" stroke="#F5F5F2" stroke-opacity="0.18" stroke-width="0.4"></line>
  </g>

  
  <path d="M 200 80 A 120 120 0 0 1 200 320 A 120 120 0 0 1 200 80 Z" fill="none" stroke="#F5F5F2" stroke-opacity="0.45" stroke-width="0.7"></path>

  
  <circle cx="200" cy="80" r="2.2" fill="#C9A227"></circle>
  <circle cx="200" cy="320" r="2.2" fill="#C9A227"></circle>

  
  <circle cx="140" cy="200" r="1.8" fill="#F5F5F2" fill-opacity="0.45"></circle>
  <circle cx="260" cy="200" r="1.8" fill="#F5F5F2" fill-opacity="0.45"></circle>

  
  <circle cx="200" cy="200" r="16" fill="none" stroke="#C8102E" stroke-opacity="0.45" stroke-width="0.5"></circle>
  <circle cx="200" cy="200" r="8" fill="url(#vesCore)"></circle>
  <circle cx="200" cy="200" r="2" fill="#0B0B0D"></circle>
</svg>