<svg xmlns="http://www.w3.org/2000/svg" viewBox="0 0 200 400" fill="none">
  <defs>
    <linearGradient id="axisColumn" x1="0" y1="0" x2="0" y2="1">
      <stop offset="0%" stop-color="#F5F5F2" stop-opacity="0"></stop>
      <stop offset="12%" stop-color="#C9A227" stop-opacity="0.55"></stop>
      <stop offset="35%" stop-color="#F5F5F2" stop-opacity="0.85"></stop>
      <stop offset="50%" stop-color="#C8102E" stop-opacity="0.95"></stop>
      <stop offset="65%" stop-color="#F5F5F2" stop-opacity="0.85"></stop>
      <stop offset="88%" stop-color="#C9A227" stop-opacity="0.55"></stop>
      <stop offset="100%" stop-color="#F5F5F2" stop-opacity="0"></stop>
    </linearGradient>
    <linearGradient id="axisHaze" x1="0" y1="0" x2="0" y2="1">
      <stop offset="0%" stop-color="#C8102E" stop-opacity="0"></stop>
      <stop offset="50%" stop-color="#C8102E" stop-opacity="0.3"></stop>
      <stop offset="100%" stop-color="#C8102E" stop-opacity="0"></stop>
    </linearGradient>
    <radialGradient id="axisHeart" cx="50%" cy="50%" r="50%">
      <stop offset="0%" stop-color="#FFF1B8" stop-opacity="0.9"></stop>
      <stop offset="35%" stop-color="#C9A227" stop-opacity="0.75"></stop>
      <stop offset="75%" stop-color="#C8102E" stop-opacity="0.4"></stop>
      <stop offset="100%" stop-color="#C8102E" stop-opacity="0"></stop>
    </radialGradient>
    <filter id="axisBlur" x="-50%" y="-50%" width="200%" height="200%">
      <feGaussianBlur stdDeviation="3"></feGaussianBlur>
    </filter>
  </defs>

  
  <rect x="50" y="0" width="100" height="400" fill="url(#axisHaze)" filter="url(#axisBlur)" opacity="0.7"></rect>

  
  <circle cx="100" cy="200" r="80" fill="url(#axisHeart)"></circle>

  
  <g stroke="#F5F5F2" stroke-opacity="0.12" stroke-width="0.4">
    <line x1="40" y1="40" x2="60" y2="40"></line>
    <line x1="140" y1="40" x2="160" y2="40"></line>
    <line x1="40" y1="120" x2="60" y2="120"></line>
    <line x1="140" y1="120" x2="160" y2="120"></line>
    <line x1="40" y1="200" x2="60" y2="200"></line>
    <line x1="140" y1="200" x2="160" y2="200"></line>
    <line x1="40" y1="280" x2="60" y2="280"></line>
    <line x1="140" y1="280" x2="160" y2="280"></line>
    <line x1="40" y1="360" x2="60" y2="360"></line>
    <line x1="140" y1="360" x2="160" y2="360"></line>
  </g>

  
  <line x1="100" y1="0" x2="100" y2="400" stroke="url(#axisColumn)" stroke-width="1.3"></line>

  
  <g>
    
    <circle cx="100" cy="40" r="3" fill="#C9A227"></circle>
    <circle cx="100" cy="40" r="10" fill="none" stroke="#C9A227" stroke-opacity="0.45" stroke-width="0.6"></circle>
    <circle cx="100" cy="40" r="18" fill="none" stroke="#C9A227" stroke-opacity="0.18" stroke-width="0.5"></circle>

    
    <circle cx="100" cy="92" r="2.4" fill="#F5F5F2"></circle>
    <circle cx="100" cy="92" r="8" fill="none" stroke="#F5F5F2" stroke-opacity="0.35" stroke-width="0.5"></circle>

    
    <circle cx="100" cy="140" r="3" fill="#C8102E"></circle>
    <circle cx="100" cy="140" r="9" fill="none" stroke="#C8102E" stroke-opacity="0.5" stroke-width="0.7"></circle>
    <circle cx="100" cy="140" r="16" fill="none" stroke="#C8102E" stroke-opacity="0.22" stroke-width="0.5"></circle>

    
    <g stroke="#C9A227" stroke-opacity="0.55" stroke-width="0.5">
      <line x1="100" y1="178" x2="100" y2="186"></line>
      <line x1="100" y1="214" x2="100" y2="222"></line>
      <line x1="78" y1="200" x2="86" y2="200"></line>
      <line x1="114" y1="200" x2="122" y2="200"></line>
    </g>
    <circle cx="100" cy="200" r="6" fill="#C8102E"></circle>
    <circle cx="100" cy="200" r="12" fill="none" stroke="#C8102E" stroke-width="0.9"></circle>
    <circle cx="100" cy="200" r="20" fill="none" stroke="#C9A227" stroke-opacity="0.55" stroke-width="0.6"></circle>
    <circle cx="100" cy="200" r="30" fill="none" stroke="#C8102E" stroke-opacity="0.3" stroke-width="0.5"></circle>

    
    <circle cx="100" cy="260" r="3" fill="#C8102E"></circle>
    <circle cx="100" cy="260" r="9" fill="none" stroke="#C8102E" stroke-opacity="0.5" stroke-width="0.7"></circle>
    <circle cx="100" cy="260" r="16" fill="none" stroke="#C8102E" stroke-opacity="0.22" stroke-width="0.5"></circle>

    
    <circle cx="100" cy="312" r="2.4" fill="#F5F5F2"></circle>
    <circle cx="100" cy="312" r="8" fill="none" stroke="#F5F5F2" stroke-opacity="0.35" stroke-width="0.5"></circle>

    
    <circle cx="100" cy="360" r="3" fill="#C9A227"></circle>
    <circle cx="100" cy="360" r="10" fill="none" stroke="#C9A227" stroke-opacity="0.45" stroke-width="0.6"></circle>
    <circle cx="100" cy="360" r="18" fill="none" stroke="#C9A227" stroke-opacity="0.18" stroke-width="0.5"></circle>
  </g>

  
  <g stroke="#F5F5F2" stroke-opacity="0.25" stroke-width="0.5" fill="none">
    <path d="M100 40 Q 130 100 100 140 Q 70 180 100 200 Q 130 240 100 260 Q 70 320 100 360"></path>
    <path d="M100 40 Q 70 100 100 140 Q 130 180 100 200 Q 70 240 100 260 Q 130 320 100 360"></path>
  </g>

  
  <g stroke="#C9A227" stroke-opacity="0.7" stroke-width="0.6" fill="none">
    <path d="M94 28 L100 18 L106 28"></path>
    <path d="M94 372 L100 382 L106 372"></path>
  </g>
</svg>